<svg height="512pt" viewBox="-34 0 511 512" width="512pt" xmlns="http://www.w3.org/2000/svg"><path d="m149.265625 70.683594h-67.324219c-19.808594 0-36.660156 12.992187-42.667968 30.980468h152.660156c-6.011719-17.988281-22.863282-30.980468-42.667969-30.980468zm0 0"/><path d="m147.699219 15c0-8.285156-6.714844-15-15-15h-30.0625c-8.28125 0-15 6.714844-15 15v25.683594h60.0625zm0 0"/><path d="m100.570312 231.070312h120.125v175.0625h-120.125zm0 0"/><path d="m220.695312 160.796875c5.828126-2.058594 10.011719-7.601563 10.011719-14.132813 0-8.285156-6.714843-15-15-15h-200.207031c-8.285156 0-15 6.714844-15 15 0 6.53125 4.183594 12.074219 10.011719 14.132813v322.070313c-5.828125 2.058593-10.011719 7.601562-10.011719 14.132812 0 8.285156 6.714844 15 15 15h200.207031c8.285157 0 15-6.714844 15-15 0-6.53125-4.183593-12.074219-10.011719-14.132812v-46.734376h-135.125c-8.28125 0-15-6.714843-15-15v-205.0625c0-8.285156 6.71875-15 15-15h135.125zm0 0"/><path d="m430.726562 71.949219-130.132812-22.949219 129.679688-18.648438c8.199218-1.179687 13.890624-8.785156 12.710937-16.984374-1.179687-8.199219-8.777344-13.886719-16.980469-12.710938l-222.445312 31.992188c-7.292969 1.046874-12.742188 7.238281-12.859375 14.609374-.117188 7.367188 5.136719 13.726563 12.390625 15.007813l222.425781 39.230469c.882813.15625 1.757813.230468 2.625.230468 7.140625 0 13.46875-5.121093 14.753906-12.398437 1.4375-8.15625-4.007812-15.9375-12.167969-17.378906zm0 0"/></svg>