<?xml version="1.0" encoding="iso-8859-1"?>
<!-- Generator: Adobe Illustrator 19.0.0, SVG Export Plug-In . SVG Version: 6.00 Build 0)  -->
<svg version="1.1" id="Capa_1" xmlns="http://www.w3.org/2000/svg" xmlns:xlink="http://www.w3.org/1999/xlink" x="0px" y="0px"
	 viewBox="0 0 512 512" style="enable-background:new 0 0 512 512;" xml:space="preserve">
<g>
	<g>
		<path d="M512,116.865L395.145,0.011L268.132,127.025L232.574,91.46l-35.565,35.565l35.557,35.557L44.597,350.56l-10.167,71.122
			L14.12,441.987l0.259,0.251c-0.935,0.769-1.932,1.416-2.803,2.285c-15.433,15.44-15.433,40.465-0.008,55.891
			c15.433,15.433,40.458,15.433,55.891-0.008c0.869-0.869,1.509-1.868,2.285-2.803l0.251,0.259l20.319-20.319l71.116-10.152
			l187.977-187.971l35.565,35.565l35.565-35.565l-35.565-35.558L512,116.865z M220.051,337.67h-91.435l129.363-129.378
			l45.724,45.724L220.051,337.67z"/>
	</g>
</g>
<g>
</g>
<g>
</g>
<g>
</g>
<g>
</g>
<g>
</g>
<g>
</g>
<g>
</g>
<g>
</g>
<g>
</g>
<g>
</g>
<g>
</g>
<g>
</g>
<g>
</g>
<g>
</g>
<g>
</g>
</svg>
