<?xml version="1.0" encoding="iso-8859-1"?>
<!-- Generator: Adobe Illustrator 19.0.0, SVG Export Plug-In . SVG Version: 6.00 Build 0)  -->
<svg version="1.1" id="Capa_1" xmlns="http://www.w3.org/2000/svg" xmlns:xlink="http://www.w3.org/1999/xlink" x="0px" y="0px"
	 viewBox="0 0 512 512" style="enable-background:new 0 0 512 512;" xml:space="preserve">
<g>
	<g>
		<g>
			<path d="M96,416H64v-80H32v80H0v96h96v-32h80v-32H96V416z M64,480H32v-32h32V480z"/>
			<path d="M96,0H0v96h32v80h32V96h32V64h80V32H96V0z M64,64H32V32h32V64z"/>
			<path d="M416,0v32h-80v32h80v32h32v80h32V96h32V0H416z M480,64h-32V32h32V64z"/>
			<rect x="208" y="32" width="32" height="32"/>
			<rect x="272" y="32" width="32" height="32"/>
			<rect x="272" y="448" width="32" height="32"/>
			<rect x="208" y="448" width="32" height="32"/>
			<rect x="32" y="272" width="32" height="32"/>
			<rect x="32" y="208" width="32" height="32"/>
			<rect x="448" y="208" width="32" height="32"/>
			<rect x="448" y="272" width="32" height="32"/>
			<path d="M480,336h-32v80h-32v32h-80v32h80v32h96v-96h-32V336z M480,480h-32v-32h32V480z"/>
		</g>
	</g>
</g>
<g>
</g>
<g>
</g>
<g>
</g>
<g>
</g>
<g>
</g>
<g>
</g>
<g>
</g>
<g>
</g>
<g>
</g>
<g>
</g>
<g>
</g>
<g>
</g>
<g>
</g>
<g>
</g>
<g>
</g>
</svg>
